<svg width="44" height="67" viewBox="0 0 44 67" fill="none" xmlns="http://www.w3.org/2000/svg">
<path id="Vector" fill-rule="evenodd" clip-rule="evenodd" d="M20.455 9.70766C16.7519 9.70766 12.916 10.5576 9.05993 11.1521C7.22571 11.4368 5.57409 9.98948 5.57409 8.10469V4.41734C5.57409 3.01256 6.50864 1.77512 7.8499 1.43751C10.6533 0.72998 13.7005 -0.0450713 21.4856 0.0121767C39.3202 0.141352 43.1268 11.6218 43.5016 16.0607C43.8705 20.4424 43.5527 26.7103 36.1261 32.695L11.6038 51.5986C10.8151 52.2062 10.353 53.1559 10.3573 54.1615C10.3661 55.923 11.7744 57.1693 13.5093 57.1693H40.3277C42.134 57.1693 43.5993 58.8338 43.5993 60.6688V63.6792C43.5993 65.5126 42.134 66.9998 40.3277 66.9998H13.2296C6.41228 66.9998 0.886719 61.3894 0.886719 54.4683V54.132C0.886719 50.116 2.73398 46.3303 5.88019 43.8965L30.3557 24.7815C31.2915 24.0505 32.1313 23.1844 32.7393 22.1569C33.0613 21.6079 33.3661 20.962 33.5716 20.2383C34.8386 16.5451 32.6299 11.9183 29.0769 10.8115C29.0769 10.8115 26.1509 9.70766 20.455 9.70766Z" fill="white"/>
</svg>
