<svg width="24" height="26" viewBox="0 0 24 26" fill="none" xmlns="http://www.w3.org/2000/svg">
<g id="shopping-bag" clip-path="url(#clip0_101_136)">
<path id="Vector" d="M5.68572 1.63828L2.42857 5.97621V21.159C2.42857 21.7342 2.65735 22.2859 3.06457 22.6927C3.47179 23.0995 4.0241 23.328 4.6 23.328H19.8C20.3759 23.328 20.9282 23.0995 21.3354 22.6927C21.7427 22.2859 21.9714 21.7342 21.9714 21.159V5.97621L18.7143 1.63828H5.68572Z" stroke="white" stroke-width="2.5" stroke-linecap="round" stroke-linejoin="round"/>
<path id="Vector_2" d="M2.42857 5.97623H21.9714" stroke="white" stroke-width="2.5" stroke-linecap="round" stroke-linejoin="round"/>
<path id="Vector_3" d="M16.5429 10.3141C16.5429 11.4646 16.0853 12.568 15.2709 13.3815C14.4564 14.195 13.3518 14.6521 12.2 14.6521C11.0482 14.6521 9.94358 14.195 9.12913 13.3815C8.31469 12.568 7.85714 11.4646 7.85714 10.3141" stroke="white" stroke-width="2.5" stroke-linecap="round" stroke-linejoin="round"/>
</g>
<defs>
<clipPath id="clip0_101_136">
<rect width="22.8" height="25.2143" fill="white" transform="translate(0.800003 0.0115356)"/>
</clipPath>
</defs>
</svg>
