<svg width="48" height="67" viewBox="0 0 48 67" fill="none" xmlns="http://www.w3.org/2000/svg">
<path id="Vector" fill-rule="evenodd" clip-rule="evenodd" d="M28.5152 9.50612C32.2183 9.50612 37.8239 10.469 41.6803 11.0606C43.5143 11.341 45.1646 9.90539 45.1646 8.03821V4.38022C45.1646 2.98718 44.2316 1.76001 42.8887 1.42533C40.2922 0.776519 35.4973 0.0557802 28.6174 0C10.5232 0 0 9.36665 0 25.4622V47.7932V47.8975C0 58.4473 8.49523 66.9992 18.9732 66.9992L34.9636 66.9611C41.8741 66.9611 47.4869 61.3377 47.5205 54.3783L47.5309 52.0193L47.5322 33.4636C47.5322 30.839 45.4182 28.7122 42.8116 28.7135H42.2401H38.0209H35.0759C33.4429 28.7135 32.1206 30.0463 32.1206 31.6889V35.3103C32.1206 36.9529 33.4429 38.2857 35.0759 38.2857H38.0922V51.9196C38.0922 52.0957 38.0909 52.338 38.088 52.6226C38.0632 55.2252 35.9783 57.3346 33.3934 57.3713C31.3452 57.4021 20.8496 57.43 20.8496 57.43H19.0097C12.7348 57.3582 9.52308 52.216 9.52308 45.8969V44.9192V23.3425C9.52308 15.6052 15.2847 9.50612 28.5152 9.50612Z" fill="white"/>
</svg>
