<svg width="72" height="67" viewBox="0 0 72 67" fill="none" xmlns="http://www.w3.org/2000/svg">
<path id="Vector" fill-rule="evenodd" clip-rule="evenodd" d="M35.8454 66.9997C30.5706 66.9997 25.86 63.8261 24.9593 58.8222L19.0882 12.6376C19.0882 12.6376 19.0896 9.57266 16.1387 9.57266C13.1895 9.57266 13.1895 12.5305 13.1895 12.5305L9.62619 64.2726C9.51999 65.8079 8.2458 66.9997 6.70917 66.9997H2.95342C1.25788 66.9997 -0.0817902 65.5598 0.037723 63.8644L3.72613 11.3914C4.18395 5.95431 8.79972 0.00784302 16.1693 0.00784302C24.4432 0.00784302 28.3299 7.32384 28.5412 11.2475L33.988 55.7132C34.0564 56.4735 34.6617 57.3675 35.8454 57.3675C37.0277 57.3675 37.6343 56.4735 37.7014 55.7132L43.1495 11.2475C43.3595 7.32384 47.2476 0.00784302 55.5214 0.00784302C62.891 0.00784302 67.5068 5.95431 67.9646 11.3914L71.653 63.8644C71.7725 65.5598 70.4313 66.9997 68.7373 66.9997H64.9803C63.4452 66.9997 62.1708 65.8079 62.0646 64.2726L58.5013 12.5305C58.5013 12.5305 58.5013 9.57266 55.552 9.57266C52.6012 9.57266 52.6025 12.6376 52.6025 12.6376L46.7317 58.8222C45.8307 63.8261 41.1202 66.9997 35.8454 66.9997Z" fill="white"/>
</svg>
